<svg width="37" height="44" viewBox="0 0 37 44" fill="none" xmlns="http://www.w3.org/2000/svg">
<path d="M17.0408 9.63014L2.23935 13.648C1.59798 13.8226 1.03117 14.2062 0.626441 14.7396C0.22171 15.2731 0.00156723 15.9266 1.09908e-09 16.5994V33.7413C-1.43047e-05 34.2786 0.139626 34.8064 0.404877 35.2717C0.670128 35.7369 1.05163 36.1232 1.51102 36.3917L13.9624 43.6719C14.2131 43.8187 14.4962 43.8992 14.7856 43.9062C15.075 43.9131 15.3616 43.8462 15.6188 43.7116C15.876 43.5769 16.0957 43.379 16.2577 43.1358C16.4196 42.8927 16.5186 42.6122 16.5455 42.3201L19.2083 11.4797C19.2338 11.1989 19.1919 10.916 19.0862 10.6552C18.9805 10.3943 18.8141 10.1632 18.6012 9.98153C18.3884 9.79988 18.1353 9.67305 17.8636 9.61186C17.5919 9.55068 17.3096 9.55695 17.0408 9.63014Z" fill="#FF6D00"/>
<path d="M23.4791 5.0455L20.3134 41.7002C20.286 42.0189 20.3455 42.3391 20.4852 42.626C20.625 42.9128 20.8397 43.1554 21.106 43.3272C21.3724 43.499 21.6801 43.5936 21.9958 43.6006C22.3115 43.6076 22.623 43.5267 22.8965 43.3668L34.8215 36.3916C35.2817 36.1236 35.6639 35.7376 35.9299 35.2723C36.1958 34.807 36.3361 34.2789 36.3364 33.7412V1.74974C36.3365 1.4814 36.2757 1.21664 36.1586 0.975951C36.0415 0.735257 35.8713 0.525081 35.6612 0.361685C35.4511 0.198288 35.2067 0.0860536 34.9469 0.0336632C34.6872 -0.0187271 34.419 -0.00986793 34.1631 0.0595555L25.7068 2.35576C25.1078 2.51795 24.5725 2.86315 24.1739 3.3444C23.7753 3.82566 23.5327 4.41962 23.4791 5.0455Z" fill="#FF5722"/>
</svg>
