<svg width="20" height="20" viewBox="0 0 20 20" fill="none" xmlns="http://www.w3.org/2000/svg">
<path d="M10 19.84C8.05387 19.84 6.15141 19.2629 4.53323 18.1816C2.91505 17.1004 1.65383 15.5636 0.909064 13.7656C0.164298 11.9676 -0.0305671 9.98906 0.349111 8.08029C0.72879 6.17151 1.66596 4.4182 3.04211 3.04205C4.41826 1.6659 6.17158 0.728729 8.08035 0.34905C9.98912 -0.0306281 11.9676 0.164237 13.7656 0.909003C15.5637 1.65377 17.1005 2.91499 18.1817 4.53317C19.2629 6.15135 19.84 8.05381 19.84 9.99998C19.8351 12.6082 18.7968 15.1081 16.9525 16.9524C15.1082 18.7967 12.6082 19.835 10 19.84ZM10 1.09712C8.23922 1.09712 6.51794 1.61926 5.05388 2.59752C3.58981 3.57578 2.44871 4.96622 1.77487 6.593C1.10103 8.21979 0.924729 10.0099 1.26825 11.7368C1.61177 13.4638 2.45968 15.0502 3.70477 16.2952C4.94985 17.5403 6.53619 18.3882 8.26318 18.7318C9.99016 19.0753 11.7802 18.899 13.407 18.2251C15.0338 17.5513 16.4242 16.4102 17.4025 14.9461C18.3807 13.4821 18.9029 11.7608 18.9029 9.99998C18.8986 7.64012 17.9592 5.37817 16.2905 3.7095C14.6218 2.04082 12.3599 1.10146 10 1.09712Z" fill="#5F6B8A"/>
<path d="M12.8232 6.47168H7.17454C6.78636 6.47168 6.47168 6.78636 6.47168 7.17454V12.8232C6.47168 13.2113 6.78636 13.526 7.17454 13.526H12.8232C13.2113 13.526 13.526 13.2113 13.526 12.8232V7.17454C13.526 6.78636 13.2113 6.47168 12.8232 6.47168Z" fill="#5F6B8A"/>
</svg>
